<?xml version="1.0" encoding="UTF-8"?>
<svg version="1.1" xmlns="http://www.w3.org/2000/svg" width="1024" height="1024">
<path d="M0 0 C337.92 0 675.84 0 1024 0 C1024 337.92 1024 675.84 1024 1024 C686.08 1024 348.16 1024 0 1024 C0 686.08 0 348.16 0 0 Z " fill="#F6F6F6" transform="translate(0,0)"/>
<path d="M0 0 C14.11942562 11.02288952 22.45590708 25.16894627 25.08203125 42.9609375 C26.66813575 59.63706399 21.67701357 75.52466683 11.91015625 88.9453125 C7.09155226 94.5841044 1.53641795 99.27620256 -4.91796875 102.9609375 C-5.57796875 102.9609375 -6.23796875 102.9609375 -6.91796875 102.9609375 C-6.91796875 112.2009375 -6.91796875 121.4409375 -6.91796875 130.9609375 C-2.3762793 130.95046387 2.16541016 130.93999023 6.84472656 130.92919922 C21.86824229 130.89602581 36.89175947 130.87385232 51.91530228 130.85731316 C61.02200443 130.84702031 70.12867176 130.83299821 79.23535156 130.81005859 C87.176888 130.79006357 95.11839921 130.7772066 103.05996013 130.77276051 C107.26116863 130.77016345 111.46230501 130.76410111 115.6634903 130.74947739 C119.62626001 130.73579667 123.58892858 130.73173582 127.55171967 130.73472214 C128.99798636 130.73417663 130.44425682 130.73026213 131.89050293 130.72252655 C151.89198004 130.62088638 168.03101432 134.80107619 184.08203125 146.9609375 C185.28279297 147.86779297 185.28279297 147.86779297 186.5078125 148.79296875 C201.92710519 161.44264755 209.86039924 180.59703241 212.08203125 199.9609375 C212.32017735 204.61725869 212.31738897 209.25656806 212.27734375 213.91796875 C212.27309891 215.82143318 212.27309891 215.82143318 212.26876831 217.76335144 C212.25956112 221.08908227 212.24168758 224.41452214 212.21936035 227.74017334 C212.19866643 231.15292894 212.18971699 234.56571497 212.1796875 237.97851562 C212.15778441 244.63940111 212.12442693 251.30015257 212.08203125 257.9609375 C212.79746094 257.94522705 213.51289062 257.9295166 214.25 257.91333008 C217.52726164 257.85053003 220.80439615 257.81180447 224.08203125 257.7734375 C225.77005859 257.73573242 225.77005859 257.73573242 227.4921875 257.69726562 C235.73402455 257.62496881 241.42534771 258.42938736 248.33203125 263.2109375 C253.84834293 268.72724918 256.1881829 274.36428219 256.2359314 282.12014771 C256.24453186 283.16296402 256.25313232 284.20578033 256.26199341 285.28019714 C256.26838333 286.98832329 256.26838333 286.98832329 256.27490234 288.73095703 C256.28307983 289.93467453 256.29125732 291.13839203 256.29968262 292.37858582 C256.32451893 296.36697053 256.34120649 300.35531738 256.35546875 304.34375 C256.36083158 305.72043742 256.36620909 307.09712479 256.3716011 308.4738121 C256.39322283 314.20428879 256.41195604 319.93476273 256.4232235 325.66526985 C256.43944076 333.85737997 256.47257182 342.04901421 256.52962434 350.24094498 C256.5684344 356.01183471 256.58786934 361.78259776 256.59314406 367.5536145 C256.59678325 370.99476237 256.60864922 374.43540195 256.6412468 377.87640762 C256.67293209 381.72282075 256.6729288 385.56804092 256.66552734 389.41455078 C256.68193268 390.54115616 256.69833801 391.66776154 256.71524048 392.82850647 C256.65251548 400.81937497 254.95829371 407.41589254 249.67464256 413.61114693 C242.57883093 420.13730244 233.63542551 419.21346792 224.64453125 419.0859375 C223.43603516 419.07691406 222.22753906 419.06789063 220.98242188 419.05859375 C218.01541847 419.03513918 215.04882982 419.00231544 212.08203125 418.9609375 C212.0909137 419.69770721 212.09979614 420.43447693 212.10894775 421.193573 C212.18993036 428.22222746 212.25041268 435.25071364 212.28927994 442.27970695 C212.30993549 445.89126768 212.3378349 449.50243509 212.38378906 453.11376953 C212.74899981 482.62431416 210.03854544 506.26418591 188.78125 528.3515625 C172.34380945 544.17024506 152.28637615 549.28133973 130.00335693 549.22836304 C128.49899928 549.23210596 126.99464356 549.23671003 125.49029088 549.24209368 C121.38250589 549.25425958 117.27480274 549.25407084 113.16700387 549.25170493 C108.72650175 549.25129514 104.28602529 549.2623513 99.84553528 549.27182007 C91.15576176 549.28839542 82.46601539 549.29392803 73.77622738 549.29504482 C66.70948998 549.29599687 59.6427615 549.30011496 52.57602692 549.30644608 C32.5187991 549.32404841 12.46159264 549.33328643 -7.59564295 549.33178513 C-9.2157826 549.33166526 -9.2157826 549.33166526 -10.86865234 549.33154297 C-11.95007156 549.33146121 -13.03149078 549.33137945 -14.14568028 549.33129521 C-31.66887091 549.33048242 -49.19197556 549.34962097 -66.71514133 549.3778197 C-84.7290958 549.4065784 -102.74300838 549.42035838 -120.75698638 549.41863215 C-130.86193587 549.41796932 -140.96679519 549.4234148 -151.07172394 549.44498825 C-159.67521165 549.46323928 -168.27856832 549.46751518 -176.88206705 549.4539694 C-181.26677049 549.44745975 -185.6512228 549.44724975 -190.03590202 549.4646759 C-194.05922034 549.48050068 -198.08209038 549.47744824 -202.10539839 549.46010764 C-203.55149315 549.4570583 -204.99762218 549.46059108 -206.4436765 549.47182779 C-219.41543977 549.56585342 -231.66584091 547.34218416 -243.23046875 541.2109375 C-243.89433594 540.86804688 -244.55820312 540.52515625 -245.2421875 540.171875 C-251.03521341 537.08376391 -256.07636386 533.40125622 -260.91796875 528.9609375 C-261.62308594 528.33574219 -262.32820313 527.71054687 -263.0546875 527.06640625 C-268.44319933 522.02686471 -272.24483236 516.33021237 -275.91796875 509.9609375 C-276.50384766 508.95933594 -276.50384766 508.95933594 -277.1015625 507.9375 C-284.01175529 495.19263081 -285.07192914 482.09526496 -285.015625 467.93359375 C-285.01375715 466.57596387 -285.01233498 465.21833331 -285.01133728 463.86070251 C-285.00754097 460.30811666 -284.99773571 456.75557246 -284.9866333 453.20300293 C-284.97635676 449.56958581 -284.97182635 445.93616188 -284.96679688 442.30273438 C-284.95611052 435.18878517 -284.93906924 428.07486407 -284.91796875 420.9609375 C-285.53728271 420.98188477 -286.15659668 421.00283203 -286.79467773 421.02441406 C-289.64810417 421.1084557 -292.50126911 421.15987195 -295.35546875 421.2109375 C-296.32935547 421.24445313 -297.30324219 421.27796875 -298.30664062 421.3125 C-307.75569486 421.43890875 -315.19795869 418.69020814 -322.05097389 412.07991028 C-328.22360936 405.0741885 -328.50643079 396.31811139 -328.46728516 387.41796875 C-328.47750702 386.20362152 -328.48772888 384.98927429 -328.4982605 383.73812866 C-328.52115447 380.43631144 -328.52622358 377.13512309 -328.5211339 373.83324814 C-328.51898004 371.06499656 -328.52879733 368.29683553 -328.53834474 365.52860355 C-328.56045681 358.99328262 -328.56145324 352.4581917 -328.54931641 345.92285156 C-328.53723154 339.20490692 -328.56188832 332.48779948 -328.60445654 325.7699976 C-328.63979581 319.9777017 -328.65167491 314.18567106 -328.64518106 308.39327145 C-328.64157312 304.94437266 -328.64664695 301.49607177 -328.67461014 298.04727173 C-328.69937779 294.19883251 -328.68573644 290.35231634 -328.66259766 286.50390625 C-328.67788513 285.3773764 -328.69317261 284.25084656 -328.70892334 283.09017944 C-328.60735452 275.41943656 -326.86293237 269.92785496 -321.91796875 263.9609375 C-316.52024813 259.6393351 -311.88286106 257.82940144 -304.9375 257.86328125 C-303.77412109 257.86650391 -302.61074219 257.86972656 -301.41210938 257.87304688 C-299.58969727 257.88561523 -299.58969727 257.88561523 -297.73046875 257.8984375 C-296.50392578 257.90294922 -295.27738281 257.90746094 -294.01367188 257.91210938 C-290.98172207 257.92390685 -287.94986969 257.94036829 -284.91796875 257.9609375 C-284.92240997 257.26317703 -284.9268512 256.56541656 -284.931427 255.84651184 C-284.97179659 249.21359911 -285.0021001 242.58072156 -285.02159309 235.9477129 C-285.03195208 232.53906246 -285.0459636 229.13051502 -285.06884766 225.72192383 C-285.09509275 221.78728545 -285.10450659 217.85268619 -285.11328125 213.91796875 C-285.12360382 212.71638626 -285.13392639 211.51480377 -285.14456177 210.27680969 C-285.14598688 199.331336 -284.24886535 188.58768533 -279.85546875 178.4609375 C-279.55310303 177.74881104 -279.2507373 177.03668457 -278.93920898 176.30297852 C-271.0332829 158.45623402 -256.27524153 143.18588823 -237.91796875 135.9609375 C-225.95531308 131.6914375 -214.35136781 130.66648419 -201.71606445 130.73388672 C-200.21692411 130.73445206 -198.71778321 130.73413187 -197.21864319 130.73300171 C-193.18218368 130.73243201 -189.14584501 130.74412379 -185.10941339 130.75814962 C-180.87870933 130.7707213 -176.64800196 130.77183253 -172.4172821 130.77420044 C-164.42069654 130.7803964 -156.42416619 130.79678151 -148.42760485 130.81689942 C-139.3174946 130.83931732 -130.20738159 130.85026662 -121.09725058 130.86029029 C-102.3707921 130.88114957 -83.64438488 130.9162886 -64.91796875 130.9609375 C-64.93716714 126.73446452 -65.01231292 122.51077043 -65.09765625 118.28515625 C-65.10478638 116.49023743 -65.10478638 116.49023743 -65.11206055 114.65905762 C-65.02759911 107.56322323 -65.02759911 107.56322323 -68.3425293 101.63037109 C-71.11009357 99.72727971 -73.85720551 98.33387245 -76.91796875 96.9609375 C-88.31977589 88.4484772 -94.59741516 72.5975497 -96.91796875 58.9609375 C-98.7302497 43.51165807 -95.84194858 27.91255424 -86.91796875 14.9609375 C-84.10224371 11.42586665 -81.10974179 8.1583597 -77.91796875 4.9609375 C-77.36496094 4.39632812 -76.81195313 3.83171875 -76.2421875 3.25 C-55.47435975 -16.22950097 -22.54219245 -15.75237545 0 0 Z " fill="#C7D0D6" transform="translate(547.91796875,213.0390625)"/>
<path d="M0 0 C0.63147949 0.36013184 1.26295898 0.72026367 1.91357422 1.09130859 C20.78343361 11.95348388 38.64002089 25.76210188 54.4765625 40.6875 C56.89166834 42.99043398 56.89166834 42.99043398 59.3359375 44.6875 C59.88507812 45.120625 60.43421875 45.55375 61 46 C61 46.66 61 47.32 61 48 C61.53238281 48.20753906 62.06476562 48.41507812 62.61328125 48.62890625 C65.96579957 50.55482103 68.49729726 53.20250639 71.1875 55.9375 C71.76556396 56.52088135 72.34362793 57.1042627 72.93920898 57.70532227 C77.12867985 61.98681821 80.98931036 66.4488049 84.70703125 71.1484375 C86.8204298 73.77668441 89.00650659 76.30727137 91.2355957 78.83618164 C119.52741867 111.08694421 141.92454454 151.15895532 156.12792969 191.53759766 C156.97726792 193.93581305 157.86489532 196.3169475 158.7578125 198.69921875 C166.62374567 220.28495606 171.14377127 243.42942226 174.4375 266.125 C174.58920654 267.16986572 174.74091309 268.21473145 174.8972168 269.29125977 C177.06136946 285.55515601 177.18655908 301.92395907 177.18530273 318.30419922 C177.18749718 321.49590248 177.20576013 324.68726326 177.22460938 327.87890625 C177.2565132 339.39345757 176.81917051 350.632142 175.26303101 362.04394531 C174.8601367 365.04010654 174.52478515 368.04402743 174.17578125 371.046875 C171.95412434 388.72144772 168.45395401 405.76203699 164 423 C163.66548828 424.2986499 163.66548828 424.2986499 163.32421875 425.62353516 C160.13747566 437.74086878 155.66746267 449.38546807 151 461 C150.65984863 461.85078125 150.31969727 462.7015625 149.96923828 463.578125 C136.38520433 497.23813501 117.63341566 529.36889214 94 557 C93.51998535 557.56348145 93.0399707 558.12696289 92.54541016 558.70751953 C89.52687476 562.25044145 86.4979653 565.78418897 83.45556641 569.30664062 C82.45775038 570.46746786 81.46550229 571.63309771 80.47802734 572.80273438 C77.46019097 576.3690054 74.34716217 579.73368716 71 583 C69.81470703 584.20269531 69.81470703 584.20269531 68.60546875 585.4296875 C63.57299369 590.51907262 58.44549414 595.36021673 53 600 C51.98352323 600.89095625 50.96797582 601.78297339 49.953125 602.67578125 C37.34360994 613.71024628 23.96276855 623.73526591 10 633 C9.32694824 633.44811035 8.65389648 633.8962207 7.96044922 634.35791016 C-4.88686005 642.84903047 -18.19574863 650.18579221 -32 657 C-32.94439941 657.46792969 -33.88879883 657.93585937 -34.86181641 658.41796875 C-58.83244633 670.16674498 -84.00765693 678.96733486 -110 685 C-111.44539769 685.35642554 -112.8907146 685.7131789 -114.3359375 686.0703125 C-125.36936726 688.68425828 -136.58872567 690.15869355 -147.8125 691.6875 C-148.60609924 691.79627472 -149.39969849 691.90504944 -150.21734619 692.01712036 C-205.00817959 699.46593749 -260.23854759 692.87512727 -313 677 C-314.21695557 676.63503418 -314.21695557 676.63503418 -315.45849609 676.26269531 C-345.77491478 667.02377812 -375.33002646 653.04075677 -402 636 C-403.64935547 634.95779297 -403.64935547 634.95779297 -405.33203125 633.89453125 C-420.5623402 624.00604418 -435.08508536 612.65421349 -448.42578125 600.35546875 C-450.52111166 598.43819373 -452.64545875 596.58436115 -454.8125 594.75 C-463.84245002 586.89543604 -472.31993956 578.17150075 -480 569 C-480.804375 568.07316406 -481.60875 567.14632812 -482.4375 566.19140625 C-495.25372926 551.37684787 -506.43664926 535.48288081 -517 519 C-517.54269531 518.15791992 -518.08539062 517.31583984 -518.64453125 516.44824219 C-537.79754142 486.40224875 -551.03622684 452.37653211 -560 418 C-560.22139648 417.16082031 -560.44279297 416.32164062 -560.67089844 415.45703125 C-564.40848307 401.12139095 -566.91748959 386.66097436 -569 372 C-569.11472656 371.19546387 -569.22945312 370.39092773 -569.34765625 369.56201172 C-571.90676207 351.13402027 -572.2828669 332.57893849 -572 314 C-571.98114746 312.35692871 -571.98114746 312.35692871 -571.96191406 310.68066406 C-571.34908071 265.64366592 -563.96920659 220.90517683 -547 179 C-546.66919434 178.18047852 -546.33838867 177.36095703 -545.99755859 176.51660156 C-533.05520122 144.77256153 -516.39345498 114.83054908 -495 88 C-494.50097168 87.3694873 -494.00194336 86.73897461 -493.48779297 86.08935547 C-486.82091531 77.68132836 -479.93910631 69.58102115 -472.58203125 61.76953125 C-470.55997641 59.60064035 -468.63220436 57.41307053 -466.75 55.125 C-464.20887188 52.11519119 -461.37951519 49.61151478 -458.37890625 47.06640625 C-456.03443582 45.02991223 -453.77131784 42.92010851 -451.51245117 40.78955078 C-444.34657231 34.0521075 -436.83714267 27.93527786 -429 22 C-428.42588379 21.55833496 -427.85176758 21.11666992 -427.26025391 20.66162109 C-416.35112393 12.2801044 -404.80281843 5.05091326 -393 -2 C-392.30293945 -2.42023438 -391.60587891 -2.84046875 -390.88769531 -3.2734375 C-317.18557601 -47.44283228 -222.29345338 -60.41574858 0 0 Z M-243 29 C-243.84691406 29.81210938 -243.84691406 29.81210938 -244.7109375 30.640625 C-255.4090517 41.84817321 -259.54177986 57.92577464 -259.49243164 72.99926758 C-258.90862815 90.34787039 -251.42719554 106.01363403 -239 118 C-235.49549104 120.93867679 -231.80133397 123.46577735 -228 126 C-227.56762695 128.61376953 -227.56762695 128.61376953 -227.48828125 131.8828125 C-227.43510742 133.63271484 -227.43510742 133.63271484 -227.38085938 135.41796875 C-227.35830078 136.64128906 -227.33574219 137.86460937 -227.3125 139.125 C-227.27833984 140.35605469 -227.24417969 141.58710938 -227.20898438 142.85546875 C-227.12628436 145.9035551 -227.05720573 148.95134571 -227 152 C-227.76861862 151.99723462 -228.53723724 151.99446924 -229.32914734 151.99162006 C-248.09474928 151.92515514 -266.8603275 151.87562012 -285.62602234 151.84456348 C-294.7012456 151.82914272 -303.77638993 151.80814565 -312.8515625 151.77368164 C-320.76823388 151.74363169 -328.68484806 151.72439025 -336.6015749 151.71773452 C-340.78730166 151.71384847 -344.97286486 151.70481764 -349.15853882 151.68280983 C-353.11150501 151.66219721 -357.06424285 151.65621526 -361.01725769 151.66067696 C-362.45540108 151.65986267 -363.89355345 151.65404631 -365.33164978 151.64238358 C-379.54233289 151.53295116 -393.39302194 152.98760795 -406 160 C-406.88945312 160.49242187 -407.77890625 160.98484375 -408.6953125 161.4921875 C-427.24490937 172.53738906 -439.12352417 188.74081735 -445.421875 209.3203125 C-447.22491772 217.67765918 -447.13357666 226.06020791 -447.09765625 234.56640625 C-447.0962413 235.84104233 -447.09482635 237.11567841 -447.09336853 238.42893982 C-447.08874507 241.78751567 -447.07978925 245.14602117 -447.06866455 248.50457764 C-447.05836228 251.94380084 -447.05385218 255.38303137 -447.04882812 258.82226562 C-447.03784189 265.54819622 -447.02113603 272.27409405 -447 279 C-448.11858398 278.9685791 -448.11858398 278.9685791 -449.25976562 278.93652344 C-452.67303725 278.85283366 -456.08609224 278.80117206 -459.5 278.75 C-461.25957031 278.69972656 -461.25957031 278.69972656 -463.0546875 278.6484375 C-471.73288543 278.55092966 -476.98032339 279.61981739 -483.75 285.3125 C-489.89544986 292.65289844 -490.58460244 297.78797728 -490.51757812 307.20239258 C-490.5245874 308.41630173 -490.53159668 309.63021088 -490.53881836 310.88090515 C-490.55336449 314.19545982 -490.55001436 317.50901006 -490.53730202 320.82350755 C-490.52712871 324.30485205 -490.53658029 327.78615553 -490.54284668 331.26750183 C-490.55011347 337.11566813 -490.54056406 342.96363205 -490.52148438 348.81176758 C-490.49974783 355.55164194 -490.50674709 362.29103161 -490.52879 369.0308941 C-490.54700841 374.83585629 -490.54947014 380.64067347 -490.53903532 386.44565505 C-490.53283162 389.90450732 -490.53187706 393.36313272 -490.54518127 396.82196999 C-490.55900186 400.68464237 -490.53978537 404.54678314 -490.51757812 408.40942383 C-490.52567505 409.54066681 -490.53377197 410.67190979 -490.54211426 411.83743286 C-490.45561013 419.99612336 -489.08746576 427.10584676 -483.921875 433.62109375 C-483.20515625 434.22050781 -482.4884375 434.81992187 -481.75 435.4375 C-481.04359375 436.05496094 -480.3371875 436.67242188 -479.609375 437.30859375 C-472.34817733 442.01532817 -465.92763513 442.40316783 -457.5 442.1875 C-455.98019531 442.16719727 -455.98019531 442.16719727 -454.4296875 442.14648438 C-451.95255596 442.11143063 -449.47657073 442.06229764 -447 442 C-447.00666183 442.73090347 -447.01332367 443.46180695 -447.02018738 444.21485901 C-447.08080115 451.17087174 -447.1262262 458.12684398 -447.15543652 465.08305454 C-447.17095971 468.65761833 -447.1919468 472.2319603 -447.22631836 475.80639648 C-447.25939725 479.26886548 -447.27695271 482.73112388 -447.28463173 486.19373894 C-447.29270946 488.12927586 -447.31604673 490.06473041 -447.33988953 492.00013733 C-447.34233086 505.14596016 -445.28897667 517.31791229 -439 529 C-438.33677734 530.26070312 -438.33677734 530.26070312 -437.66015625 531.546875 C-433.95160581 538.16268243 -429.30420166 543.604504 -424 549 C-423.38511719 549.62777344 -422.77023437 550.25554688 -422.13671875 550.90234375 C-406.96947331 565.2251601 -387.45277656 570.31869696 -367.15510559 570.26069641 C-365.65176173 570.26372029 -364.14841941 570.26761096 -362.64507979 570.27228898 C-358.53084138 570.28254755 -354.41669032 570.28039261 -350.30244482 570.27610838 C-345.85852142 570.27363721 -341.41461885 570.28266029 -336.97070312 570.29014587 C-328.27029267 570.30288487 -319.5699131 570.30468749 -310.86949489 570.30234561 C-303.79459698 570.30056108 -296.71970842 570.30231499 -289.64481163 570.30657005 C-288.63706631 570.30716524 -287.62932099 570.30776043 -286.59103793 570.30837366 C-284.54362697 570.30958544 -282.49621601 570.31079957 -280.44880506 570.31201603 C-261.25386903 570.32288889 -242.05895059 570.32073052 -222.86401358 570.31463119 C-205.32063541 570.30946455 -187.77731282 570.32071123 -170.23394565 570.33972941 C-152.20537002 570.35912316 -134.17682067 570.36736096 -116.14823455 570.36360615 C-106.03268619 570.36169615 -95.91718511 570.36416192 -85.80164528 570.37832069 C-77.188214 570.3902552 -68.57485908 570.39161635 -59.96142671 570.37953053 C-55.57082742 570.37365582 -51.18036763 570.37250317 -46.78977776 570.38453293 C-42.76217822 570.39543937 -38.73483387 570.3922323 -34.70724603 570.37827124 C-33.25841966 570.3756373 -31.80957298 570.37794941 -30.36076663 570.38600711 C-7.02748429 570.50666077 12.51522384 563.04091709 29.27734375 546.8125 C33.13148246 542.83118025 36.19613873 538.77208902 39 534 C39.90878906 532.46279297 39.90878906 532.46279297 40.8359375 530.89453125 C51.01436562 512.2340797 50.53770576 492.69493957 50.2746582 472.02319336 C50.23309524 468.40227764 50.21533553 464.78124379 50.1953125 461.16015625 C50.15293109 454.10649024 50.08503402 447.05329196 50 440 C50.74572266 440.01571045 51.49144531 440.0314209 52.25976562 440.04760742 C55.67309843 440.11037588 59.08630931 440.14912339 62.5 440.1875 C64.25957031 440.22520508 64.25957031 440.22520508 66.0546875 440.26367188 C74.09608931 440.3314365 79.67032674 439.5172519 86.6875 435.4375 C93.60670562 428.14428327 94.73010182 420.21972567 94.61523438 410.51708984 C94.62078339 409.3092836 94.6263324 408.10147736 94.63204956 406.85707092 C94.64177456 403.57378936 94.6293553 400.29155892 94.60576439 397.0083766 C94.58551068 393.55682826 94.59154227 390.10531024 94.59387207 386.65371704 C94.59381867 380.86210286 94.57416082 375.07081678 94.54199219 369.27929688 C94.50507176 362.60015231 94.49632321 355.92143642 94.5032897 349.24220312 C94.50961116 342.79220489 94.49881236 336.34235235 94.47932434 329.89238358 C94.47118715 327.15812719 94.46843393 324.42394565 94.47001648 321.68967819 C94.46821483 317.86758979 94.4468009 314.04610487 94.41992188 310.22412109 C94.42285248 309.09975143 94.42578308 307.97538177 94.42880249 306.81694031 C94.32881047 297.58125313 92.77339888 290.77339888 86 284 C80.4575486 280.1016016 75.82465675 278.86824155 69.140625 278.90234375 C68.02558594 278.90556641 66.91054688 278.90878906 65.76171875 278.91210938 C64.60285156 278.92048828 63.44398438 278.92886719 62.25 278.9375 C61.07566406 278.94201172 59.90132812 278.94652344 58.69140625 278.95117188 C55.79421928 278.96294906 52.89713546 278.97939674 50 279 C50.00666183 278.31112198 50.01332367 277.62224396 50.02018738 276.91249084 C50.08093217 270.33971486 50.12629027 263.76702005 50.15543652 257.19402409 C50.17092607 253.81676023 50.19354235 250.43990983 50.22631836 247.06274414 C50.48290449 219.91995693 48.88252422 195.87507295 29.70703125 174.67578125 C12.02644478 157.31886684 -7.74618941 151.82266457 -31.86132812 151.88647461 C-33.36002602 151.88675704 -34.85872406 151.88659766 -36.35742188 151.8860321 C-40.40641804 151.88574631 -44.45538431 151.8916078 -48.50437355 151.89860606 C-52.74310783 151.90487588 -56.98184286 151.90544626 -61.22058105 151.90663147 C-69.2384962 151.90973411 -77.25639765 151.91793307 -85.27430677 151.92798096 C-94.40611836 151.93917529 -103.53793061 151.94466091 -112.66974735 151.94967639 C-131.44650757 151.96011661 -150.22324902 151.97844878 -169 152 C-169 142.76 -169 133.52 -169 124 C-167.35 123.34 -165.7 122.68 -164 122 C-150.07685316 112.73304419 -141.69885271 99.6943742 -138.125 83.4375 C-135.13825263 65.94624892 -138.10748388 49.8583246 -148 35 C-157.93321739 21.85418071 -172.56846682 12.36555849 -189 10 C-210.31445103 8.1817056 -227.65772156 13.71193455 -243 29 Z " fill="#E3E7EB" transform="translate(710,192)"/>
<path d="M0 0 C14.11942562 11.02288952 22.45590708 25.16894627 25.08203125 42.9609375 C26.66813575 59.63706399 21.67701357 75.52466683 11.91015625 88.9453125 C7.09155226 94.5841044 1.53641795 99.27620256 -4.91796875 102.9609375 C-5.57796875 102.9609375 -6.23796875 102.9609375 -6.91796875 102.9609375 C-6.91796875 112.2009375 -6.91796875 121.4409375 -6.91796875 130.9609375 C-2.3762793 130.95046387 2.16541016 130.93999023 6.84472656 130.92919922 C21.86824229 130.89602581 36.89175947 130.87385232 51.91530228 130.85731316 C61.02200443 130.84702031 70.12867176 130.83299821 79.23535156 130.81005859 C87.176888 130.79006357 95.11839921 130.7772066 103.05996013 130.77276051 C107.26116863 130.77016345 111.46230501 130.76410111 115.6634903 130.74947739 C119.62626001 130.73579667 123.58892858 130.73173582 127.55171967 130.73472214 C128.99798636 130.73417663 130.44425682 130.73026213 131.89050293 130.72252655 C151.89198004 130.62088638 168.03101432 134.80107619 184.08203125 146.9609375 C185.28279297 147.86779297 185.28279297 147.86779297 186.5078125 148.79296875 C201.92710519 161.44264755 209.86039924 180.59703241 212.08203125 199.9609375 C212.32017735 204.61725869 212.31738897 209.25656806 212.27734375 213.91796875 C212.27309891 215.82143318 212.27309891 215.82143318 212.26876831 217.76335144 C212.25956112 221.08908227 212.24168758 224.41452214 212.21936035 227.74017334 C212.19866643 231.15292894 212.18971699 234.56571497 212.1796875 237.97851562 C212.15778441 244.63940111 212.12442693 251.30015257 212.08203125 257.9609375 C212.79746094 257.94522705 213.51289062 257.9295166 214.25 257.91333008 C217.52726164 257.85053003 220.80439615 257.81180447 224.08203125 257.7734375 C225.77005859 257.73573242 225.77005859 257.73573242 227.4921875 257.69726562 C235.73402455 257.62496881 241.42534771 258.42938736 248.33203125 263.2109375 C253.84834293 268.72724918 256.1881829 274.36428219 256.2359314 282.12014771 C256.24453186 283.16296402 256.25313232 284.20578033 256.26199341 285.28019714 C256.26838333 286.98832329 256.26838333 286.98832329 256.27490234 288.73095703 C256.28307983 289.93467453 256.29125732 291.13839203 256.29968262 292.37858582 C256.32451893 296.36697053 256.34120649 300.35531738 256.35546875 304.34375 C256.36083158 305.72043742 256.36620909 307.09712479 256.3716011 308.4738121 C256.39322283 314.20428879 256.41195604 319.93476273 256.4232235 325.66526985 C256.43944076 333.85737997 256.47257182 342.04901421 256.52962434 350.24094498 C256.5684344 356.01183471 256.58786934 361.78259776 256.59314406 367.5536145 C256.59678325 370.99476237 256.60864922 374.43540195 256.6412468 377.87640762 C256.67293209 381.72282075 256.6729288 385.56804092 256.66552734 389.41455078 C256.68193268 390.54115616 256.69833801 391.66776154 256.71524048 392.82850647 C256.65251548 400.81937497 254.95829371 407.41589254 249.67464256 413.61114693 C242.57883093 420.13730244 233.63542551 419.21346792 224.64453125 419.0859375 C223.43603516 419.07691406 222.22753906 419.06789063 220.98242188 419.05859375 C218.01541847 419.03513918 215.04882982 419.00231544 212.08203125 418.9609375 C212.0909137 419.69770721 212.09979614 420.43447693 212.10894775 421.193573 C212.18993036 428.22222746 212.25041268 435.25071364 212.28927994 442.27970695 C212.30993549 445.89126768 212.3378349 449.50243509 212.38378906 453.11376953 C212.74899981 482.62431416 210.03854544 506.26418591 188.78125 528.3515625 C172.34380945 544.17024506 152.28637615 549.28133973 130.00335693 549.22836304 C128.49899928 549.23210596 126.99464356 549.23671003 125.49029088 549.24209368 C121.38250589 549.25425958 117.27480274 549.25407084 113.16700387 549.25170493 C108.72650175 549.25129514 104.28602529 549.2623513 99.84553528 549.27182007 C91.15576176 549.28839542 82.46601539 549.29392803 73.77622738 549.29504482 C66.70948998 549.29599687 59.6427615 549.30011496 52.57602692 549.30644608 C32.5187991 549.32404841 12.46159264 549.33328643 -7.59564295 549.33178513 C-9.2157826 549.33166526 -9.2157826 549.33166526 -10.86865234 549.33154297 C-11.95007156 549.33146121 -13.03149078 549.33137945 -14.14568028 549.33129521 C-31.66887091 549.33048242 -49.19197556 549.34962097 -66.71514133 549.3778197 C-84.7290958 549.4065784 -102.74300838 549.42035838 -120.75698638 549.41863215 C-130.86193587 549.41796932 -140.96679519 549.4234148 -151.07172394 549.44498825 C-159.67521165 549.46323928 -168.27856832 549.46751518 -176.88206705 549.4539694 C-181.26677049 549.44745975 -185.6512228 549.44724975 -190.03590202 549.4646759 C-194.05922034 549.48050068 -198.08209038 549.47744824 -202.10539839 549.46010764 C-203.55149315 549.4570583 -204.99762218 549.46059108 -206.4436765 549.47182779 C-219.41543977 549.56585342 -231.66584091 547.34218416 -243.23046875 541.2109375 C-243.89433594 540.86804688 -244.55820312 540.52515625 -245.2421875 540.171875 C-251.03521341 537.08376391 -256.07636386 533.40125622 -260.91796875 528.9609375 C-261.62308594 528.33574219 -262.32820313 527.71054687 -263.0546875 527.06640625 C-268.44319933 522.02686471 -272.24483236 516.33021237 -275.91796875 509.9609375 C-276.50384766 508.95933594 -276.50384766 508.95933594 -277.1015625 507.9375 C-284.01175529 495.19263081 -285.07192914 482.09526496 -285.015625 467.93359375 C-285.01375715 466.57596387 -285.01233498 465.21833331 -285.01133728 463.86070251 C-285.00754097 460.30811666 -284.99773571 456.75557246 -284.9866333 453.20300293 C-284.97635676 449.56958581 -284.97182635 445.93616188 -284.96679688 442.30273438 C-284.95611052 435.18878517 -284.93906924 428.07486407 -284.91796875 420.9609375 C-285.53728271 420.98188477 -286.15659668 421.00283203 -286.79467773 421.02441406 C-289.64810417 421.1084557 -292.50126911 421.15987195 -295.35546875 421.2109375 C-296.32935547 421.24445313 -297.30324219 421.27796875 -298.30664062 421.3125 C-307.75569486 421.43890875 -315.19795869 418.69020814 -322.05097389 412.07991028 C-328.22360936 405.0741885 -328.50643079 396.31811139 -328.46728516 387.41796875 C-328.47750702 386.20362152 -328.48772888 384.98927429 -328.4982605 383.73812866 C-328.52115447 380.43631144 -328.52622358 377.13512309 -328.5211339 373.83324814 C-328.51898004 371.06499656 -328.52879733 368.29683553 -328.53834474 365.52860355 C-328.56045681 358.99328262 -328.56145324 352.4581917 -328.54931641 345.92285156 C-328.53723154 339.20490692 -328.56188832 332.48779948 -328.60445654 325.7699976 C-328.63979581 319.9777017 -328.65167491 314.18567106 -328.64518106 308.39327145 C-328.64157312 304.94437266 -328.64664695 301.49607177 -328.67461014 298.04727173 C-328.69937779 294.19883251 -328.68573644 290.35231634 -328.66259766 286.50390625 C-328.67788513 285.3773764 -328.69317261 284.25084656 -328.70892334 283.09017944 C-328.60735452 275.41943656 -326.86293237 269.92785496 -321.91796875 263.9609375 C-316.52024813 259.6393351 -311.88286106 257.82940144 -304.9375 257.86328125 C-303.77412109 257.86650391 -302.61074219 257.86972656 -301.41210938 257.87304688 C-299.58969727 257.88561523 -299.58969727 257.88561523 -297.73046875 257.8984375 C-296.50392578 257.90294922 -295.27738281 257.90746094 -294.01367188 257.91210938 C-290.98172207 257.92390685 -287.94986969 257.94036829 -284.91796875 257.9609375 C-284.92240997 257.26317703 -284.9268512 256.56541656 -284.931427 255.84651184 C-284.97179659 249.21359911 -285.0021001 242.58072156 -285.02159309 235.9477129 C-285.03195208 232.53906246 -285.0459636 229.13051502 -285.06884766 225.72192383 C-285.09509275 221.78728545 -285.10450659 217.85268619 -285.11328125 213.91796875 C-285.12360382 212.71638626 -285.13392639 211.51480377 -285.14456177 210.27680969 C-285.14598688 199.331336 -284.24886535 188.58768533 -279.85546875 178.4609375 C-279.55310303 177.74881104 -279.2507373 177.03668457 -278.93920898 176.30297852 C-271.0332829 158.45623402 -256.27524153 143.18588823 -237.91796875 135.9609375 C-225.95531308 131.6914375 -214.35136781 130.66648419 -201.71606445 130.73388672 C-200.21692411 130.73445206 -198.71778321 130.73413187 -197.21864319 130.73300171 C-193.18218368 130.73243201 -189.14584501 130.74412379 -185.10941339 130.75814962 C-180.87870933 130.7707213 -176.64800196 130.77183253 -172.4172821 130.77420044 C-164.42069654 130.7803964 -156.42416619 130.79678151 -148.42760485 130.81689942 C-139.3174946 130.83931732 -130.20738159 130.85026662 -121.09725058 130.86029029 C-102.3707921 130.88114957 -83.64438488 130.9162886 -64.91796875 130.9609375 C-64.93716714 126.73446452 -65.01231292 122.51077043 -65.09765625 118.28515625 C-65.10478638 116.49023743 -65.10478638 116.49023743 -65.11206055 114.65905762 C-65.02759911 107.56322323 -65.02759911 107.56322323 -68.3425293 101.63037109 C-71.11009357 99.72727971 -73.85720551 98.33387245 -76.91796875 96.9609375 C-88.31977589 88.4484772 -94.59741516 72.5975497 -96.91796875 58.9609375 C-98.7302497 43.51165807 -95.84194858 27.91255424 -86.91796875 14.9609375 C-84.10224371 11.42586665 -81.10974179 8.1583597 -77.91796875 4.9609375 C-77.36496094 4.39632812 -76.81195313 3.83171875 -76.2421875 3.25 C-55.47435975 -16.22950097 -22.54219245 -15.75237545 0 0 Z M-247.91796875 173.9609375 C-252.53940827 179.57455048 -255.75882921 185.02896318 -257.91796875 191.9609375 C-258.26694529 192.95820547 -258.61592182 193.95547344 -258.9754734 194.98296165 C-260.40445192 200.05737842 -260.20057216 205.18735697 -260.18539429 210.42105103 C-260.1899254 211.56942141 -260.19445651 212.71779179 -260.19912493 213.90096128 C-260.21177729 217.7460269 -260.21014798 221.59095103 -260.20849609 225.43603516 C-260.21339489 228.19427015 -260.2212299 230.95249525 -260.22885132 233.71072388 C-260.24544235 240.42449767 -260.25096005 247.13823634 -260.25207607 253.85202892 C-260.25302765 259.3127588 -260.25714344 264.77347712 -260.26347733 270.23420334 C-260.28108623 285.73218156 -260.290317 301.23013211 -260.28881638 316.7281204 C-260.28873647 317.56307993 -260.28865655 318.39803945 -260.28857422 319.25830078 C-260.28849246 320.0942856 -260.2884107 320.93027042 -260.28832646 321.79158811 C-260.28751413 335.32978154 -260.30663913 348.86786355 -260.33485095 362.40602477 C-260.36362094 376.32241979 -260.37738892 390.23876056 -260.3756634 404.15518606 C-260.37500081 411.96188969 -260.380435 419.76847659 -260.4020195 427.57515335 C-260.42028578 434.22411837 -260.42453435 440.87291377 -260.41100065 447.5218931 C-260.40449752 450.90999051 -260.40645559 454.29749928 -260.42170715 457.68560791 C-260.43721466 461.3703326 -260.42781378 465.0542147 -260.41244507 468.73892212 C-260.42273219 469.79352776 -260.43301932 470.8481334 -260.44361818 471.93469679 C-260.32851572 484.49771949 -256.29949686 494.89808508 -248.91796875 504.9609375 C-248.4178125 505.68023438 -247.91765625 506.39953125 -247.40234375 507.140625 C-240.46678497 516.14284019 -228.87654382 521.65686255 -217.91796875 523.9609375 C-212.97616473 524.37895986 -208.04676811 524.36709612 -203.09121704 524.34188843 C-201.60208239 524.34534996 -200.1129503 524.35011784 -198.62382352 524.35607016 C-194.55354573 524.36854214 -190.48348016 524.36242718 -186.41320181 524.35311151 C-182.01500131 524.34630558 -177.61683653 524.35680996 -173.21864319 524.36505127 C-164.61059835 524.37837501 -156.00263208 524.37551672 -147.39458419 524.36681335 C-140.39596762 524.36003098 -133.39737304 524.35912248 -126.39875412 524.3623848 C-124.90312537 524.36307434 -124.90312537 524.36307434 -123.3772819 524.36377782 C-121.35152901 524.36473703 -119.32577612 524.36570967 -117.30002324 524.3666956 C-98.3140112 524.37524574 -79.32804264 524.36542171 -60.34203772 524.3492945 C-44.0645919 524.33589579 -27.78721028 524.33821646 -11.50976562 524.35205078 C7.40642561 524.36812034 26.32257874 524.37441747 45.23877585 524.36521399 C47.25757892 524.36425838 49.276382 524.36331526 51.29518509 524.3623848 C52.28839047 524.36192197 53.28159586 524.36145914 54.30489837 524.36098229 C61.2910066 524.35839622 68.27709057 524.36275522 75.26319504 524.36982346 C83.78297457 524.37825412 92.30267123 524.3759256 100.82244132 524.35998122 C105.16621537 524.35211893 109.50985144 524.34897187 113.85362434 524.35892868 C117.8360596 524.36791885 121.81823 524.36287218 125.80064149 524.34699602 C127.23526805 524.34366636 128.66991734 524.34530103 130.10452907 524.35262339 C145.67632369 524.42595726 159.78785035 521.42258557 171.53515625 510.5703125 C182.74089782 498.91181369 187.39926102 485.29585772 187.34272766 469.4118042 C187.34655321 468.26595738 187.35037876 467.12011055 187.35432023 465.9395411 C187.36461942 462.10906114 187.36066384 458.27873195 187.35668945 454.44824219 C187.35994509 451.69809029 187.36615696 448.94794672 187.37217712 446.19779968 C187.38490823 439.50788898 187.38671973 432.81801846 187.38437686 426.12809768 C187.38259145 420.68740655 187.38434812 415.24672758 187.3886013 409.8060379 C187.38949409 408.64304603 187.38949409 408.64304603 187.39040491 407.45655937 C187.39161671 405.88128342 187.39283084 404.30600747 187.39404728 402.73073152 C187.4049171 387.96619486 187.40276321 373.20168106 187.39666244 358.43714312 C187.39149604 344.94685567 187.40274237 331.45664049 187.42176066 317.96636733 C187.44116054 304.09853711 187.44939114 290.23074103 187.4456374 276.36289716 C187.44372833 268.58365072 187.44618404 260.80446575 187.46035194 253.02523041 C187.4722943 246.40116669 187.4736389 239.77720227 187.46156178 233.15313712 C187.45569243 229.77739471 187.45616147 226.40198162 187.46656418 223.02622795 C187.47705426 219.35665392 187.46891209 215.68756241 187.45625305 212.01800537 C187.46362734 210.96505996 187.47100162 209.91211454 187.47859937 208.82726169 C187.37460058 194.42794708 182.98223495 181.41279254 173.04296875 170.80078125 C162.31584581 160.73609021 149.32772721 155.84648528 134.67602158 155.82950974 C133.4252957 155.82566859 132.17456983 155.82182745 130.88594317 155.8178699 C129.51101854 155.81864999 128.13609395 155.81952875 126.76116943 155.82049561 C125.29041315 155.81790967 123.81965756 155.81489588 122.34890294 155.8114922 C118.31558974 155.80344596 114.28229436 155.80163396 110.24897408 155.80089474 C105.89573966 155.79904007 101.54251439 155.79149074 97.18928528 155.78475952 C87.67480311 155.77119331 78.16032516 155.76515436 68.64583492 155.76074886 C62.70296833 155.75798396 56.76010335 155.75374619 50.81723785 155.74924469 C34.35682146 155.73705504 17.89640637 155.72675462 1.43598557 155.7233696 C0.38306138 155.72315003 -0.66986281 155.72293047 -1.75469379 155.72270425 C-3.33780831 155.72237683 -3.33780831 155.72237683 -4.95290494 155.7220428 C-7.09148741 155.72159934 -9.23006988 155.72115277 -11.36865234 155.72070312 C-12.42945789 155.7204817 -13.49026344 155.72026027 -14.58321461 155.72003213 C-31.77308506 155.71608386 -48.96291313 155.69862759 -66.15276721 155.6753436 C-83.80948738 155.6516206 -101.46618629 155.63916734 -119.12292266 155.63800168 C-129.03328877 155.63708554 -138.94359963 155.63134837 -148.8539505 155.61318207 C-157.29220779 155.59776841 -165.73039275 155.59266816 -174.16866145 155.60092017 C-178.47179358 155.60482197 -182.77478008 155.60392004 -187.07789421 155.58986282 C-191.02214351 155.57709601 -194.96613816 155.57834565 -198.91038725 155.59045354 C-200.33230485 155.59240571 -201.75424066 155.58935438 -203.17613271 155.58060917 C-221.2744968 155.47640188 -235.3281879 160.64193595 -247.91796875 173.9609375 Z " fill="#31373D" transform="translate(547.91796875,213.0390625)"/>
<path d="M0 0 C10.27430832 8.50668538 17.91045157 20.6865914 20 34 C21.09213272 50.6340215 17.60480904 64.54706011 6.6875 77.3125 C-4.14867361 88.7275677 -18.18578013 93.6032205 -33.75 94.375 C-47.62380104 94.00062759 -60.4927116 88.23454628 -70.75 79.0625 C-78.34939561 70.97862562 -84.16719839 59.11609101 -85 48 C-85.07992188 47.10539063 -85.15984375 46.21078125 -85.2421875 45.2890625 C-85.91506719 30.52529045 -81.37356711 17.80574072 -71.96875 6.57421875 C-53.1049114 -13.75908554 -22.28384242 -15.87299979 0 0 Z " fill="#32383F" transform="translate(439,472)"/>
<path d="M0 0 C13.21912312 10.69486845 18.75831016 23.06867991 20.65234375 39.69921875 C21.18028681 51.52514329 17.29051848 63.4070405 10.33203125 72.88671875 C9.56246094 73.94632813 9.56246094 73.94632813 8.77734375 75.02734375 C0.33462548 85.61103842 -13.38499696 92.13133964 -26.66796875 93.88671875 C-42.00535705 95.11485226 -55.74065917 90.63101797 -67.57421875 80.85546875 C-77.99565779 71.05620518 -84.43125729 58.63943106 -85.00170898 44.28393555 C-85.1678771 35.88802116 -83.77564819 28.74860251 -80.66796875 20.88671875 C-80.41402344 20.17386719 -80.16007813 19.46101563 -79.8984375 18.7265625 C-74.94726237 6.8486202 -63.10506238 -2.36967017 -51.71875 -7.421875 C-34.18375686 -13.78023512 -15.15717859 -10.53835359 0 0 Z " fill="#32383F" transform="translate(650.66796875,472.11328125)"/>
<path d="M0 0 C0.76451745 -0.00467997 1.52903489 -0.00935994 2.31671953 -0.01418173 C4.86851074 -0.02611052 7.41976279 -0.01668298 9.97155762 -0.00723267 C11.8050518 -0.01129931 13.63854354 -0.01664171 15.47203064 -0.02316284 C20.4451213 -0.03683116 25.4180251 -0.03153976 30.391119 -0.02202559 C35.59733964 -0.01442651 40.80354436 -0.02147529 46.00976562 -0.02618408 C54.75242991 -0.0316409 63.49501816 -0.02445192 72.2376709 -0.01016235 C82.34312106 0.006164 92.44838963 0.00087544 102.55383539 -0.01564157 C111.23255037 -0.0292585 119.91121071 -0.03117507 128.58993292 -0.02332556 C133.7723116 -0.0186502 138.95460496 -0.01802048 144.13697815 -0.02793503 C149.00928809 -0.03660539 153.88136407 -0.03058142 158.75364876 -0.01325226 C160.54106826 -0.0092878 162.32850747 -0.01042076 164.11591911 -0.01704025 C166.55728094 -0.02524753 168.99789472 -0.01494444 171.43920898 0 C172.14524655 -0.00669217 172.85128411 -0.01338433 173.57871675 -0.02027929 C179.01400046 0.04418234 183.06491816 1.39339959 187.08288574 5.09970093 C187.56112793 5.68751343 188.03937012 6.27532593 188.53210449 6.88095093 C189.0232373 7.46876343 189.51437012 8.05657593 190.02038574 8.66220093 C192.90156903 12.79158414 192.8988168 17.55620146 192.21960449 22.38095093 C189.79112968 28.58826323 186.15094684 31.6349591 180.21960449 34.38095093 C176.73863164 35.54127521 173.62363078 35.52591327 170.00325012 35.52139282 C168.89306221 35.52584951 168.89306221 35.52584951 167.76044625 35.53039622 C165.27326953 35.53908762 162.78614091 35.54059185 160.2989502 35.54208374 C158.51840614 35.54671168 156.73786307 35.5517363 154.95732117 35.55712891 C150.11414129 35.57025901 145.27097529 35.57669929 140.42778039 35.58113956 C137.40163692 35.58406987 134.37549725 35.58817465 131.3493557 35.59264374 C121.88052904 35.60632153 112.41171106 35.61598628 102.94287521 35.61984563 C92.01430281 35.62432439 81.08585561 35.64186266 70.15732127 35.67084622 C61.70964467 35.69247198 53.26200327 35.70255042 44.81429929 35.70388675 C39.7692863 35.70493432 34.72439095 35.71083178 29.67940712 35.72870636 C24.93109178 35.74520199 20.18298232 35.74733527 15.43464851 35.73856735 C13.69482623 35.73779772 11.95499282 35.7421299 10.21519852 35.7520256 C7.83351464 35.76477428 5.4525567 35.75885284 3.07087708 35.7484436 C2.04667183 35.76052821 2.04667183 35.76052821 1.00177556 35.77285695 C-4.77656879 35.71409911 -10.32400316 34.43182879 -14.83898926 30.66220093 C-15.29402832 30.07438843 -15.74906738 29.48657593 -16.21789551 28.88095093 C-16.69098145 28.29313843 -17.16406738 27.70532593 -17.65148926 27.09970093 C-20.72135316 22.42585969 -20.54757064 16.736564 -19.78039551 11.38095093 C-15.77524034 2.8855872 -9.15053861 -0.08673323 0 0 Z " fill="#30363D" transform="translate(425.7803955078125,628.6190490722656)"/>
<path d="M0 0 C7.49967356 6.76263667 12.22155258 15.24104871 13.23828125 25.375 C13.54720512 36.30114948 10.5134877 45.94467424 3 54 C-4.1330903 61.37314622 -12.62036276 64.92417731 -22.8125 65.1875 C-32.50998976 65.05820014 -41.95315296 61.86615866 -49 55 C-56.34962329 46.38997361 -59.73176131 36.85653286 -59.27734375 25.49609375 C-58.13941679 15.25475108 -54.50109971 6.63431177 -46.49609375 -0.109375 C-32.05053459 -10.52912259 -14.35182348 -10.95147314 0 0 Z " fill="#F4544A" transform="translate(535,234)"/>
<path d="M0 0 C6.93 0 13.86 0 21 0 C21 37.29 21 74.58 21 113 C14.07 113 7.14 113 0 113 C0 75.71 0 38.42 0 0 Z " fill="#5B6267" transform="translate(760,495)"/>
<path d="M0 0 C6.6 0 13.2 0 20 0 C20 38.94 20 77.88 20 118 C13.4 118 6.8 118 0 118 C0 79.06 0 40.12 0 0 Z " fill="#5B6267" transform="translate(243,495)"/>
<path d="M0 0 C3.97312951 5.95969426 3.14192935 13.0513033 3.12698364 19.97608948 C3.12854363 21.08433089 3.13010362 22.1925723 3.13171089 23.33439678 C3.13570063 27.04919795 3.13253906 30.76395828 3.12939453 34.47875977 C3.13074946 37.14145019 3.13249373 39.8041378 3.13470459 42.46682739 C3.13914956 48.94878057 3.13819151 55.43072217 3.13529195 61.91267581 C3.13303312 67.1804164 3.13272748 72.44815376 3.13381577 77.7158947 C3.133969 78.46576104 3.13412223 79.21562738 3.13428011 79.98821695 C3.13459983 81.51156609 3.13492405 83.03491523 3.1352527 84.55826437 C3.13810371 98.83995966 3.1348263 113.12164853 3.12945233 127.40334278 C3.12498372 139.65846546 3.12576143 151.91357866 3.13037109 164.16870117 C3.13572196 178.4010186 3.13783002 192.6333304 3.13475883 206.86564869 C3.13444028 208.38307281 3.13412591 209.90049694 3.13381577 211.41792107 C3.13366149 212.16452146 3.13350721 212.91112186 3.13334826 213.68034651 C3.13248472 218.94244778 3.13394248 224.20454548 3.13629532 229.46664619 C3.13909915 235.87829725 3.13834267 242.28993606 3.13301457 248.70158572 C3.1303856 251.97306035 3.12989681 255.24451034 3.13266373 258.51598549 C3.13538607 262.06097558 3.1319807 265.60590779 3.12698364 269.15089417 C3.13032973 270.70457926 3.13032973 270.70457926 3.13374341 272.28965193 C3.13113566 273.23990718 3.12852791 274.19016243 3.12584114 275.16921329 C3.12567879 275.98729593 3.12551644 276.80537857 3.12534916 277.64825159 C2.99057893 280.17675408 2.55260708 282.53183081 2 285 C0 283 0 283 -0.24839699 280.93699872 C-0.24763755 280.07807134 -0.24687811 279.21914395 -0.24609566 278.33418846 C-0.25007775 277.34440542 -0.25405985 276.35462237 -0.25816262 275.3348459 C-0.25233693 274.23953322 -0.24651125 273.14422053 -0.24050903 272.01571655 C-0.24221788 270.85836239 -0.24392673 269.70100822 -0.24568737 268.50858271 C-0.24842062 265.28639664 -0.24213758 262.06436987 -0.23213124 258.84220266 C-0.22351972 255.37117602 -0.22641527 251.90015724 -0.22793579 248.42912292 C-0.2289861 242.41209514 -0.22269427 236.39511062 -0.21146011 230.37809372 C-0.19522783 221.67843079 -0.18999944 212.97878885 -0.18748413 204.27911241 C-0.18310345 190.16555526 -0.16978425 176.05202118 -0.15087891 161.93847656 C-0.13252974 148.22591264 -0.11836853 134.51335497 -0.10986328 120.80078125 C-0.10933783 119.95598695 -0.10881239 119.11119265 -0.10827102 118.24079852 C-0.105661 114.00284766 -0.10313357 109.76489676 -0.10064721 105.52694583 C-0.0799031 70.35128077 -0.04466745 35.17564251 0 0 Z " fill="#363C44" transform="translate(735,411)"/>
<path d="M0 0 C4.62 0 9.24 0 14 0 C14 0.33 14 0.66 14 1 C9.545 1.495 9.545 1.495 5 2 C5 2.33 5 2.66 5 3 C-0.61 3.99 -6.22 4.98 -12 6 C-12 5.34 -12 4.68 -12 4 C-7.8803623 2.70756464 -4.33168317 1.73747375 0 2 C0 1.34 0 0.68 0 0 Z " fill="#DDE0E3" transform="translate(326,342)"/>
<path d="M0 0 C0.66 0.33 1.32 0.66 2 1 C1.06409496 2.1055189 0.12620142 3.20935453 -0.8125 4.3125 C-1.33457031 4.92738281 -1.85664063 5.54226563 -2.39453125 6.17578125 C-3.87172469 7.85424679 -5.40039131 9.43882034 -7 11 C-7.66 10.67 -8.32 10.34 -9 10 C-6.03 6.7 -3.06 3.4 0 0 Z " fill="#1E232A" transform="translate(372,474)"/>
<path d="M0 0 C2.17766075 4.35532149 2.03039555 5.46625958 1 10 C0.01 10 -0.98 10 -2 10 C-1.34 6.7 -0.68 3.4 0 0 Z " fill="#D8DBDF" transform="translate(758,700)"/>
</svg>
